# xmcd
#
# Track frame offsets: 
#        150
#        7462
#        21924
#        35139
#        45545
#        59632
#        64461
#        73724
#        84796
#        97045
#        108804
#        122417
#        142043
#        154107
#        165781
#        177563
#        194782
#        207183
#        215303
#        227918
#        242451
#        255239
#        263357
#        275970
#
# Disc length: 4008 seconds
#
# Revision: 1
# Processed by: cddbd v1.5.2PL0 Copyright (c) Steve Scherf et al.
# Submitted via: ExactAudioCopy v1.1
#
DISCID=5e0fa618
DTITLE=Sun Ra - Definitive 45s collection -  Disc 1
DYEAR=2016
DGENRE=Jazz
TTITLE0=I Am An Instrument (mono)
TTITLE1=I Am Strange (mono)
TTITLE2=The Nu Sounds with Sun Ra - Chicago USA (mono)
TTITLE3=The Nu Sounds with Sun Ra - Spaceship Lullaby (mono)
TTITLE4=The Cosmic Rays with Sun Ra and Arkestra - Daddy's Gonna Tell Yo
TTITLE4=u No Lie (mono)
TTITLE5=The Nu Sounds with Sun Ra and Arkestra - A Foggy Day (mono)
TTITLE6=Billie Hawkins with Sun-Ra and His Orchestra - I'm Coming Home (
TTITLE6=mono)
TTITLE7=Billie Hawkins with Sun-Ra and His Orchestra - Last Call For Lov
TTITLE7=e (mono)
TTITLE8=Sun-Ra and His Arkistra - Soft Talk (mono)
TTITLE9=Sun-Ra and His Arkistra - Super Blonde (mono)
TTITLE10=Le Sun-Ra and His Arkistra - Saturn (mono)
TTITLE11=Le Sun-Ra and His Arkistra - Call For All Demons (mono)
TTITLE12=Le Sun-Ra and His Arkistra - Demon's Lullaby (mono)
TTITLE13=Le Sun-Ra and His Arkistra - Super-Sonic Jazz (mono)
TTITLE14=Le Sun-Ra and His Arkistra - Medicine For A Nightmare (mono)
TTITLE15=Le Sun-Ra and His Arkistra - Urnack (mono)
TTITLE16=The Qualities - It's Christmas Time (mono)
TTITLE17=The Qualities - Happy New Year To You! (mono)
TTITLE18=Yochanan (The Space Age Vocalist) - M Uck M Uck (Matt Matt) (
TTITLE18=mono)
TTITLE19=Yochanan (The Space Age Vocalist) - Hot Skillet Mama (mono)
TTITLE20=The Cosmic Rays with Le Sun Ra and Arkestra - Bye Bye (mono)
TTITLE21=The Cosmic Rays with Le Sun Ra and Arkestra - Somebody's In Lov
TTITLE21=e (mono)
TTITLE22=Le Sun Ra and His Arkestra - Hours After (mono)
TTITLE23=Le Sun Ra and His Arkestra - Great Balls Of Fire (mono)
EXTD=
EXTT0=
EXTT1=
EXTT2=
EXTT3=
EXTT4=
EXTT5=
EXTT6=
EXTT7=
EXTT8=
EXTT9=
EXTT10=
EXTT11=
EXTT12=
EXTT13=
EXTT14=
EXTT15=
EXTT16=
EXTT17=
EXTT18=
EXTT19=
EXTT20=
EXTT21=
EXTT22=
EXTT23=
PLAYORDER=
